<svg class="border shadow-md dark:border-slate-700" viewBox="0 0 748 748" xmlns="http://www.w3.org/2000/svg" preserveAspectRatio="none" style="width: 748px; height: 748px;"><rect class="bg" id="bg" x="0" y="0" width="748" height="748" fill="#009ca6"/><g transform="rotate(0 374 374)"><path d="M -237.00 -44.80 S -162.00 -82.20&#10;            0.00 -44.80 12.00 -82.20&#10;            237.00 -44.80 345.50 -87.80&#10;            474.00 -44.80 582.50 -82.20&#10;            711.00 -44.80 819.50 -103.80&#10;            948.00 -44.80 1056.50 -82.20&#10;            1185.00 -44.80 h 110 V 948 H -237.00 Z" fill="#00EFDA" id="-1"/><path d="M -237.00 30.00 S -128.50 -7.40&#10;            0.00 30.00 -2.00 -9.00&#10;            237.00 30.00 265.00 -7.40&#10;            474.00 30.00 540.00 -7.40&#10;            711.00 30.00 754.00 -24.00&#10;            948.00 30.00 1056.50 -28.00&#10;            1185.00 30.00 h 110 V 948 H -237.00 Z" fill="#00e0cc" id="0"/><path id="1" d="M -237.00 104.80 S -128.50 67.40&#10;            0.00 104.80 108.50 37.80&#10;            237.00 104.80 273.00 51.80&#10;            474.00 104.80 582.50 67.40&#10;            711.00 104.80 769.00 32.80&#10;            948.00 104.80 1056.50 63.80&#10;            1185.00 104.80 h 110 V 948 H -237.00 Z" fill="#00d1be"/><path id="2" d="M -237.00 179.60 S -128.50 138.60&#10;            0.00 179.60 108.50 142.20&#10;            237.00 179.60 330.00 142.20&#10;            474.00 179.60 559.00 142.20&#10;            711.00 179.60 819.50 142.20&#10;            948.00 179.60 1014.00 142.20&#10;            1185.00 179.60 h 110 V 948 H -237.00 Z" fill="#00c2b0"/><path id="3" d="M -237.00 254.40 S -128.50 217.00&#10;            0.00 254.40 108.50 217.00&#10;            237.00 254.40 345.50 197.40&#10;            474.00 254.40 582.50 217.00&#10;            711.00 254.40 819.50 217.00&#10;            948.00 254.40 981.00 206.40&#10;            1185.00 254.40 h 110 V 948 H -237.00 Z" fill="#00b3a2"/><path id="4" d="M -237.00 329.20 S -201.00 284.20&#10;            0.00 329.20 12.00 291.80&#10;            237.00 329.20 345.50 256.20&#10;            474.00 329.20 582.50 288.20&#10;            711.00 329.20 779.00 291.80&#10;            948.00 329.20 1056.50 291.80&#10;            1185.00 329.20 h 110 V 948 H -237.00 Z" fill="#00a494"/><path id="5" d="M -237.00 404.00 S -128.50 364.00&#10;            0.00 404.00 108.50 366.60&#10;            237.00 404.00 319.00 366.60&#10;            474.00 404.00 582.50 339.00&#10;            711.00 404.00 819.50 330.00&#10;            948.00 404.00 1047.00 366.60&#10;            1185.00 404.00 h 110 V 948 H -237.00 Z" fill="#009586"/><path id="6" d="M -237.00 478.80 S -170.00 441.40&#10;            0.00 478.80 108.50 441.40&#10;            237.00 478.80 321.00 424.80&#10;            474.00 478.80 582.50 441.40&#10;            711.00 478.80 744.00 441.40&#10;            948.00 478.80 996.00 441.40&#10;            1185.00 478.80 h 110 V 948 H -237.00 Z" fill="#008678"/><path id="7" d="M -237.00 553.60 S -128.50 516.20&#10;            0.00 553.60 108.50 512.60&#10;            237.00 553.60 345.50 516.20&#10;            474.00 553.60 509.00 500.60&#10;            711.00 553.60 819.50 480.60&#10;            948.00 553.60 1056.50 516.20&#10;            1185.00 553.60 h 110 V 948 H -237.00 Z" fill="#00776a"/><path id="8" d="M -237.00 628.40 S -159.00 591.00&#10;            0.00 628.40 102.00 554.40&#10;            237.00 628.40 345.50 591.00&#10;            474.00 628.40 482.00 589.40&#10;            711.00 628.40 819.50 591.00&#10;            948.00 628.40 1043.00 591.00&#10;            1185.00 628.40 h 110 V 948 H -237.00 Z" fill="#00685c"/><path id="9" d="M -237.00 703.20 S -128.50 665.80&#10;            0.00 703.20 108.50 632.20&#10;            237.00 703.20 276.00 660.20&#10;            474.00 703.20 471.00 665.80&#10;            711.00 703.20 736.00 665.80&#10;            948.00 703.20 1033.00 665.80&#10;            1185.00 703.20 h 110 V 948 H -237.00 Z" fill="#00594e"/></g></svg>