<svg class="border shadow-md dark:border-slate-700" viewBox="0 0 1267.2 633.6" style="width: 1267.2px; height: 633.6px;" xmlns="http://www.w3.org/2000/svg" preserveAspectRatio="none"><rect class="bg" id="bg" x="0" y="0" width="1267.2" height="633.6" fill="#ffffff"/><g transform="rotate(0 633.6 316.8)"><path id="-1" d="M -733.60 -33.36 S -655.00 -87.36&#10;            0.00 -33.36 356.80 -90.36&#10;            733.60 -33.36 1090.40 -73.36&#10;            1467.20 -33.36 1824.00 -65.04&#10;            2200.80 -33.36 h 110 V 833.6 H -733.60 Z" fill="#FFD642"/><path id="0" d="M -733.60 30.00 S -376.80 -14.00&#10;            0.00 30.00 356.80 -15.00&#10;            733.60 30.00 1090.40 -10.00&#10;            1467.20 30.00 1487.80 -24.00&#10;            2200.80 30.00 h 110 V 833.6 H -733.60 Z" fill="#f4ca3c"/><path id="1" d="M -733.60 93.36 S -476.00 42.36&#10;            0.00 93.36 331.60 36.36&#10;            733.60 93.36 870.20 61.68&#10;            1467.20 93.36 1705.80 61.68&#10;            2200.80 93.36 h 110 V 833.6 H -733.60 Z" fill="#e9be36"/><path id="2" d="M -733.60 156.72 S -505.00 124.72&#10;            0.00 156.72 356.80 98.72&#10;            733.60 156.72 783.20 125.04&#10;            1467.20 156.72 1815.80 103.72&#10;            2200.80 156.72 h 110 V 833.6 H -733.60 Z" fill="#deb230"/><path id="3" d="M -733.60 220.08 S -376.80 183.08&#10;            0.00 220.08 356.80 188.40&#10;            733.60 220.08 1090.40 188.40&#10;            1467.20 220.08 1824.00 175.08&#10;            2200.80 220.08 h 110 V 833.6 H -733.60 Z" fill="#d3a62a"/><path id="4" d="M -733.60 283.44 S -376.80 230.44&#10;            0.00 283.44 356.80 251.76&#10;            733.60 283.44 1090.40 234.44&#10;            1467.20 283.44 1733.80 245.44&#10;            2200.80 283.44 h 110 V 833.6 H -733.60 Z" fill="#c89a24"/><path id="5" d="M -733.60 346.80 S -376.80 315.12&#10;            0.00 346.80 356.80 294.80&#10;            733.60 346.80 1090.40 315.12&#10;            1467.20 346.80 1824.00 315.12&#10;            2200.80 346.80 h 110 V 833.6 H -733.60 Z" fill="#bd8e1e"/><path id="6" d="M -733.60 410.16 S -668.00 378.48&#10;            0.00 410.16 336.60 367.16&#10;            733.60 410.16 803.20 364.16&#10;            1467.20 410.16 1824.00 378.16&#10;            2200.80 410.16 h 110 V 833.6 H -733.60 Z" fill="#b28218"/><path id="7" d="M -733.60 473.52 S -376.80 441.84&#10;            0.00 473.52 356.80 441.84&#10;            733.60 473.52 1090.40 441.52&#10;            1467.20 473.52 1824.00 441.84&#10;            2200.80 473.52 h 110 V 833.6 H -733.60 Z" fill="#a77612"/><path id="8" d="M -733.60 536.88 S -644.00 505.20&#10;            0.00 536.88 356.80 474.88&#10;            733.60 536.88 750.20 490.88&#10;            1467.20 536.88 1824.00 495.88&#10;            2200.80 536.88 h 110 V 833.6 H -733.60 Z" fill="#9c6a0c"/><path id="9" d="M -733.60 600.24 S -376.80 568.56&#10;            0.00 600.24 356.80 557.24&#10;            733.60 600.24 1090.40 568.56&#10;            1467.20 600.24 1764.80 552.24&#10;            2200.80 600.24 h 110 V 833.6 H -733.60 Z" fill="#915e06"/></g></svg>